<svg xmlns="http://www.w3.org/2000/svg" width="234.358" height="194.91" viewBox="0 0 234.358 194.91">
  <path id="Developer-icon-SVG-098uhjklfg" d="M20.225,193.91A20.251,20.251,0,0,1,0,173.574V20.113A20.2,20.2,0,0,1,20.225,0h192.8a20.3,20.3,0,0,1,20.335,20.113V173.574a20.346,20.346,0,0,1-20.335,20.335Zm-8.89-20.335a8.94,8.94,0,0,0,8.89,9h192.8a8.964,8.964,0,0,0,9-9V51.561H11.335Zm0-153.461V40.226H222.024V20.113a8.94,8.94,0,0,0-9-8.89H20.225A8.916,8.916,0,0,0,11.335,20.113ZM80.675,166.462a5.648,5.648,0,0,1-2.111-7.668L130.9,67.451a5.413,5.413,0,0,1,7.667-2.111,5.75,5.75,0,0,1,2.111,7.668L88.343,164.462a5.791,5.791,0,0,1-4.89,2.778A5.02,5.02,0,0,1,80.675,166.462Zm63.451-15.668a5.634,5.634,0,0,1,0-8l27.225-27.225L144.793,88.787a5.633,5.633,0,0,1,0-8,5.7,5.7,0,0,1,7.889,0l30.67,30.669a5.77,5.77,0,0,1,0,8.113l-31.337,31.225a5.456,5.456,0,0,1-4,1.667A5.214,5.214,0,0,1,144.126,150.794Zm-77.564,0-30.67-30.559a5.708,5.708,0,0,1-1.667-4.111,5.643,5.643,0,0,1,1.667-4L67.229,80.787a5.7,5.7,0,0,1,7.889,0,5.632,5.632,0,0,1,0,8L47.894,116.123l26.558,26.67a5.633,5.633,0,0,1,0,8,5.214,5.214,0,0,1-3.889,1.667A5.458,5.458,0,0,1,66.562,150.794ZM63.118,29.781a5.365,5.365,0,0,1-2.223-4.333c0-1.111,1.111-2.223,2.223-3.334,1.111-2.333,4.445-2.333,7.779,0a4.085,4.085,0,0,1,1.111,3.334c0,2.222,0,3.334-1.111,4.333C69.785,31,67.563,31,66.451,31A3.851,3.851,0,0,1,63.118,29.781ZM42,29.781c-1.111-1-1.111-2.111-1.111-4.333A4.085,4.085,0,0,1,42,22.113c3.334-2.333,6.667-2.333,7.779,0,1.111,1.111,2.223,2.223,2.223,3.334a5.365,5.365,0,0,1-2.223,4.333A3.852,3.852,0,0,1,46.449,31C44.227,31,43.115,31,42,29.781Zm-20,0a5.365,5.365,0,0,1-2.223-4.333c0-1.111,1.111-2.223,2.223-3.334,1.111-2.333,5.556-2.333,7.779,0a4.085,4.085,0,0,1,1.111,3.334c0,2.222,0,3.334-1.111,4.333C28.67,31,27.558,31,25.336,31A3.851,3.851,0,0,1,22,29.781Z" transform="translate(0.5 0.5)" stroke="rgba(0,0,0,0)" stroke-miterlimit="10" stroke-width="1"/>
</svg>
