<?xml version="1.0" encoding="utf-8"?>
<!-- Svg Vector Icons : http://www.onlinewebfonts.com/icon -->
<!DOCTYPE svg PUBLIC "-//W3C//DTD SVG 1.1//EN" "http://www.w3.org/Graphics/SVG/1.1/DTD/svg11.dtd">
<svg version="1.1" xmlns="http://www.w3.org/2000/svg" xmlns:xlink="http://www.w3.org/1999/xlink" x="0px" y="0px" viewBox="0 0 1000 1000" enable-background="new 0 0 1000 1000" xml:space="preserve">
<metadata> Svg Vector Icons : http://www.onlinewebfonts.com/icon </metadata>
<g><g transform="translate(0.000000,512.000000) scale(0.100000,-0.100000)"><path d="M2730.7,4995.6c-70.9-32.6-134.1-99.6-160.9-170.4c-13.4-32.6-21.1-243.2-21.1-540v-486.4L2162,3793c-367.7-5.7-394.5-7.7-484.5-53.6c-122.6-59.4-237.5-174.3-296.8-296.8c-46-90-47.9-116.8-53.6-482.6l-5.8-386.8l-515.1-5.8c-484.5-5.7-517.1-7.7-566.8-46c-101.5-74.7-132.1-136-132.1-256.6c0-120.6,30.6-181.9,132.1-256.6c49.8-38.3,82.3-40.2,568.8-46l515.1-5.7v-409.8V1135H817.6c-490.2,0-505.6-1.9-566.8-42.1c-147.5-101.5-191.5-266.2-111.1-406C225.9,539.4,250.8,531.7,821.5,526l501.7-5.8V120v-400.2L821.5-286c-570.7-5.7-595.6-13.4-681.7-160.8c-80.4-139.8-36.4-304.5,111.1-406C312.1-893,327.4-895,817.6-895h505.6v-411.7v-409.8l-515.1-5.7c-486.4-5.7-519-7.7-568.8-46c-101.5-74.7-132.1-136-132.1-256.6c0-120.6,30.6-181.9,132.1-256.6c49.8-38.3,82.3-40.2,566.8-45.9l515.1-5.7l5.8-386.8c5.7-365.8,7.7-392.6,53.6-482.6c59.4-122.6,174.3-237.5,296.8-296.8c90-46,116.8-47.9,482.6-53.6l386.8-5.7l5.7-515.1c5.7-484.5,7.7-517.1,46-566.8c74.7-99.6,136-132.1,254.7-132.1c90,0,122.6,9.6,178.1,51.7c124.5,95.8,130.2,126.4,130.2,674.1v490.2h411.7H3985v-503.6c0-452,3.8-509.4,36.4-568.8c40.2-76.6,170.4-153.2,256.6-153.2c91.9,0,218.3,70.9,266.2,149.4c42.1,69,44,88.1,49.8,574.5l5.7,501.7h402.2h400.2v-482.6c0-430.9,3.8-494.1,36.4-563c53.6-116.8,139.8-170.4,273.8-170.4c116.8,0,180,32.6,252.8,132.1c38.3,49.8,40.2,82.3,45.9,568.7l5.7,515.1h409.8h411.7v-505.6c0-490.2,1.9-505.5,44-566.8c63.2-95.8,134.1-137.9,237.5-147.5c124.5-9.6,229.8,49.8,289.2,166.6c40.2,80.4,42.1,105.3,42.1,566.8v482.6l379.2,7.7c346.6,5.7,384.9,9.6,476.8,51.7c118.7,53.6,260.4,197.2,317.9,323.6c36.4,80.4,42.1,130.2,47.9,469.2l7.7,377.3h490.2c473,0,494.1,1.9,566.9,44c204.9,114.9,204.9,409.8,0,524.7c-72.8,42.1-93.8,44-566.9,44h-494.1v411.7v409.8l515.1,5.7c490.2,5.7,519,7.7,570.7,46c187.7,139.8,166.6,423.2-40.2,522.8c-74.7,38.3-114.9,40.2-563,40.2h-482.6v411.7v411.7h505.6c490.2,0,505.5,1.9,568.7,44c93.8,61.3,159,201.1,141.7,302.6c-19.2,109.2-118.7,216.4-229.8,245.1c-49.8,11.5-266.2,21.1-534.3,21.1h-451.9v400.2v402.2l503.7,5.7c568.8,5.7,593.6,13.4,679.8,160.9c80.4,139.8,36.4,304.5-111.1,406c-61.3,40.2-76.6,42.1-566.8,42.1h-501.7l-7.7,379.2c-5.7,337-11.5,386.8-47.9,467.3c-57.5,126.4-199.2,270-317.9,323.6c-91.9,42.1-130.2,46-476.8,51.7l-379.2,7.7v480.7c0,429-5.7,492.2-36.4,561.1c-53.6,116.8-139.8,170.4-273.8,170.4c-120.6,0-185.8-36.4-258.5-143.6c-42.1-61.3-44-76.6-44-566.8v-505.6h-411.7h-409.8l-5.7,515.1c-5.7,486.4-7.6,519-45.9,568.8c-72.8,99.6-136,132.1-252.8,132.1c-134.1,0-220.2-53.6-273.8-170.4c-32.6-68.9-36.4-132.1-36.4-561.1v-484.5h-406h-407.9v503.6c0,490.2-1.9,503.7-44,572.6c-47.9,78.5-174.3,149.4-266.2,149.4c-86.2,0-216.4-76.6-256.6-153.2c-32.5-59.4-36.4-116.8-36.4-568.8v-503.6h-411.7h-411.7v484.5c0,540-11.5,597.5-134.1,683.7C2950.9,5018.6,2811.2,5033.9,2730.7,4995.6z M7008.8,2209.3c34.5-24.9,80.4-80.4,99.6-124.5c34.5-74.7,36.4-166.6,36.4-1964.8v-1888.2l-42.1-84.3c-28.7-57.5-70.9-101.5-120.6-128.3l-76.6-44l-1928.4,5.7c-1913.1,3.8-1928.4,3.8-1980.1,44c-28.7,21.1-70.8,63.2-91.9,91.9c-40.2,51.7-40.2,67-46,1951.4c-1.9,1045.6,0,1926.5,5.7,1961c13.4,76.6,93.8,174.3,172.3,208.7c46,21.1,411.7,24.9,1982,21.1l1924.6-3.8L7008.8,2209.3z"/></g></g>
</svg>