<svg viewBox="0 0 72 72" xmlns="http://www.w3.org/2000/svg"><g style="fill:none;stroke:#000;stroke-linecap:round;stroke-linejoin:round;stroke-miterlimit:10;stroke-width:2"><path d="m32.667 22.0835c-3.4561 1.4468-11.667 6.9165-15.667 15.9165-2.291 5.1543-5 22-5 22s6.4395-3.0947 13-4.333c4.417-.834 7.4277-1.7178 9.417-2.5 7-2.751 16.25-10.667 18.833-16.334 2.8164-6.1787 6.75-24.833 6.75-24.833s-3.5 2.1665-11.75 5.1665c-5.2822 1.9209-12 3.417-15.583 4.917z"/><path d="m50 22c1.1045 0 2 .8955 2 2"/><path d="m41 24c1.1045 0 2 .8955 2 2"/><path d="m43 33c1.1045 0 2 .8955 2 2"/><path d="m32 29c1.1045 0 2 .8955 2 2"/><path d="m35 41c1.1045 0 2 .8955 2 2"/><path d="m25 37c1.1045 0 2 .8955 2 2"/></g></svg>